<svg xmlns="http://www.w3.org/2000/svg" width="241" height="59" viewBox="0 0 241 59" fill="none">
  <path d="M159.543 31.9253L136.479 51.2452V43.2652L153.075 29.6386L136.479 16.1054V8.12543L159.543 27.352V31.9253Z" fill="#222425"/>
  <path d="M102.384 51.2452L79.3203 31.9253V27.352L102.384 8.12543V16.1054L85.7506 29.6386L102.384 43.2652V51.2452Z" fill="#222425"/>
  <path d="M119.933 0.103149L121.065 8.83631C122.274 18.1671 128.618 26.0296 137.482 29.1839C128.618 32.3383 122.274 40.2008 121.065 49.5315L119.933 58.2647L118.801 49.5315C117.592 40.2008 111.249 32.3383 102.384 29.1839C111.249 26.0296 117.592 18.1671 118.801 8.83631L119.933 0.103149Z" fill="#222425"/>
</svg>