<svg width="28" height="23" viewBox="0 0 28 23" fill="none" xmlns="http://www.w3.org/2000/svg">
<path d="M24.6017 19.6857H27.0618V22.1458H0V19.6857H2.46017V1.23442C2.46017 0.908179 2.58976 0.595302 2.82045 0.364617C3.05114 0.133931 3.36401 0.0043335 3.69025 0.0043335H15.9911C16.3173 0.0043335 16.6302 0.133931 16.8609 0.364617C17.0916 0.595302 17.2212 0.908179 17.2212 1.23442V19.6857H19.6813V7.38484H23.3716C23.6978 7.38484 24.0107 7.51443 24.2414 7.74512C24.4721 7.9758 24.6017 8.28868 24.6017 8.61492V19.6857ZM7.3805 9.845V12.3052H12.3008V9.845H7.3805ZM7.3805 4.92467V7.38484H12.3008V4.92467H7.3805Z" fill="#222425"/>
</svg>
