<svg xmlns="http://www.w3.org/2000/svg" width="19" height="15" viewBox="0 0 19 15" fill="none">
  <path d="M8.10925 14.6519C8.10925 14.6519 6.95078 14.6519 6.95078 13.4935C6.95078 12.335 8.10925 8.85956 12.7431 8.85956C17.377 8.85956 18.5355 12.335 18.5355 13.4935C18.5355 14.6519 17.377 14.6519 17.377 14.6519H8.10925ZM12.7431 7.70109C13.6649 7.70109 14.5489 7.33493 15.2006 6.68316C15.8524 6.03139 16.2186 5.1474 16.2186 4.22566C16.2186 3.30393 15.8524 2.41994 15.2006 1.76817C14.5489 1.1164 13.6649 0.750244 12.7431 0.750244C11.8214 0.750244 10.9374 1.1164 10.2857 1.76817C9.63389 2.41994 9.26773 3.30393 9.26773 4.22566C9.26773 5.1474 9.63389 6.03139 10.2857 6.68316C10.9374 7.33493 11.8214 7.70109 12.7431 7.70109ZM6.04254 14.6519C5.87088 14.2902 5.78524 13.8937 5.79231 13.4935C5.79231 11.9237 6.58007 10.3077 8.03511 9.18393C7.30896 8.95969 6.55224 8.85025 5.79231 8.85956C1.15841 8.85956 -6.10352e-05 12.335 -6.10352e-05 13.4935C-6.10352e-05 14.6519 1.15841 14.6519 1.15841 14.6519H6.04254ZM5.21307 7.70109C5.98119 7.70109 6.71784 7.39595 7.26098 6.85281C7.80412 6.30967 8.10925 5.57302 8.10925 4.8049C8.10925 4.03679 7.80412 3.30013 7.26098 2.75699C6.71784 2.21385 5.98119 1.90872 5.21307 1.90872C4.44495 1.90872 3.7083 2.21385 3.16516 2.75699C2.62202 3.30013 2.31689 4.03679 2.31689 4.8049C2.31689 5.57302 2.62202 6.30967 3.16516 6.85281C3.7083 7.39595 4.44495 7.70109 5.21307 7.70109Z" fill="#222425"/>
</svg>