<svg xmlns="http://www.w3.org/2000/svg" width="25" height="26" viewBox="0 0 25 26" fill="none">
  <path fill-rule="evenodd" clip-rule="evenodd" d="M-0.00115967 1.23008C-0.00115967 0.903845 0.128438 0.590968 0.359123 0.360283C0.589809 0.129598 0.902686 0 1.22892 0H23.3704C23.6967 0 24.0095 0.129598 24.2402 0.360283C24.4709 0.590968 24.6005 0.903845 24.6005 1.23008C24.6005 1.55632 24.4709 1.8692 24.2402 2.09988C24.0095 2.33057 23.6967 2.46017 23.3704 2.46017V15.9911C23.3704 16.6436 23.1112 17.2693 22.6499 17.7307C22.1885 18.1921 21.5627 18.4513 20.9103 18.4513H14.6922L17.5128 21.2718C17.7368 21.5038 17.8608 21.8146 17.858 22.1371C17.8552 22.4596 17.7259 22.7681 17.4978 22.9962C17.2697 23.2243 16.9612 23.3536 16.6387 23.3564C16.3162 23.3592 16.0054 23.2352 15.7734 23.0112L12.2948 19.5325L8.81485 23.0112C8.58285 23.2352 8.27213 23.3592 7.94961 23.3564C7.62708 23.3536 7.31856 23.2243 7.0905 22.9962C6.86243 22.7681 6.73306 22.4596 6.73026 22.1371C6.72746 21.8146 6.85144 21.5038 7.07551 21.2718L9.89609 18.4513H3.68909C3.03661 18.4513 2.41086 18.1921 1.94949 17.7307C1.48812 17.2693 1.22892 16.6436 1.22892 15.9911V2.46017C0.902686 2.46017 0.589809 2.33057 0.359123 2.09988C0.128438 1.8692 -0.00115967 1.55632 -0.00115967 1.23008ZM17.5189 5.13191C17.7509 4.90784 18.0616 4.78385 18.3842 4.78666C18.7067 4.78946 19.0152 4.91882 19.2433 5.14689C19.4713 5.37496 19.6007 5.68348 19.6035 6.006C19.6063 6.32853 19.4823 6.63925 19.2583 6.87125L14.0476 12.0819C13.8147 12.3147 13.4987 12.4455 13.1693 12.4455C12.84 12.4455 12.524 12.3147 12.2911 12.0819L9.6919 9.48271L7.08289 12.0905C6.85106 12.3147 6.54042 12.4389 6.21789 12.4364C5.89536 12.4338 5.58675 12.3046 5.35852 12.0767C5.13028 11.8488 5.0007 11.5404 4.99767 11.2179C4.99464 10.8953 5.11841 10.5845 5.34232 10.3524L8.81362 6.88109C9.04659 6.64823 9.36251 6.51742 9.6919 6.51742C10.0213 6.51742 10.3372 6.64823 10.5702 6.88109L13.1693 9.48025L17.5189 5.13191Z" fill="#222425"/>
</svg>