<svg xmlns="http://www.w3.org/2000/svg" width="14" height="15" viewBox="0 0 14 15" fill="none">
  <path d="M7.19316 9.72937C6.56713 9.72937 5.96675 9.48068 5.52408 9.03801C5.08141 8.59534 4.83272 7.99496 4.83272 7.36893C4.83272 6.7429 5.08141 6.14251 5.52408 5.69985C5.96675 5.25718 6.56713 5.00849 7.19316 5.00849C7.81919 5.00849 8.41957 5.25718 8.86224 5.69985C9.30491 6.14251 9.5536 6.7429 9.5536 7.36893C9.5536 7.99496 9.30491 8.59534 8.86224 9.03801C8.41957 9.48068 7.81919 9.72937 7.19316 9.72937ZM12.204 8.02311C12.231 7.8073 12.2512 7.59148 12.2512 7.36893C12.2512 7.14637 12.231 6.92382 12.204 6.69452L13.627 5.59523C13.7552 5.49407 13.7889 5.31197 13.708 5.1636L12.3591 2.83014C12.2782 2.68177 12.0961 2.62107 11.9478 2.68177L10.2685 3.35618C9.91778 3.09316 9.5536 2.86386 9.12872 2.69526L8.87919 0.908071C8.86549 0.828637 8.82411 0.756616 8.76239 0.704771C8.70067 0.652925 8.62259 0.624601 8.54198 0.624818H5.84434C5.67573 0.624818 5.53411 0.746212 5.50713 0.908071L5.2576 2.69526C4.83272 2.86386 4.46854 3.09316 4.11785 3.35618L2.43856 2.68177C2.29019 2.62107 2.1081 2.68177 2.02717 2.83014L0.67835 5.1636C0.590676 5.31197 0.631141 5.49407 0.759279 5.59523L2.18229 6.69452C2.15531 6.92382 2.13508 7.14637 2.13508 7.36893C2.13508 7.59148 2.15531 7.8073 2.18229 8.02311L0.759279 9.14263C0.631141 9.24379 0.590676 9.42588 0.67835 9.57425L2.02717 11.9077C2.1081 12.0561 2.29019 12.11 2.43856 12.0561L4.11785 11.3749C4.46854 11.6447 4.83272 11.874 5.2576 12.0426L5.50713 13.8298C5.53411 13.9916 5.67573 14.113 5.84434 14.113H8.54198C8.71058 14.113 8.85221 13.9916 8.87919 13.8298L9.12872 12.0426C9.5536 11.8672 9.91778 11.6447 10.2685 11.3749L11.9478 12.0561C12.0961 12.11 12.2782 12.0561 12.3591 11.9077L13.708 9.57425C13.7889 9.42588 13.7552 9.24379 13.627 9.14263L12.204 8.02311Z" fill="#222425"/>
</svg>