<svg xmlns="http://www.w3.org/2000/svg" width="16" height="13" viewBox="0 0 16 13" fill="none">
  <path d="M14.0699 0.778137H1.65247C0.798764 0.778137 0.108042 1.45722 0.108042 2.28721L0.100281 11.3416C0.100281 12.1716 0.798764 12.8507 1.65247 12.8507H14.0699C14.9236 12.8507 15.6221 12.1716 15.6221 11.3416V2.28721C15.6221 1.45722 14.9236 0.778137 14.0699 0.778137ZM13.7595 3.98491L8.27254 7.31995C8.02419 7.47086 7.69823 7.47086 7.44988 7.31995L1.9629 3.98491C1.88508 3.94244 1.81693 3.88505 1.76258 3.81624C1.70823 3.74742 1.66881 3.66859 1.6467 3.58453C1.6246 3.50047 1.62026 3.41292 1.63396 3.32719C1.64766 3.24145 1.67911 3.15931 1.72641 3.08573C1.77371 3.01215 1.83588 2.94867 1.90914 2.89913C1.9824 2.84959 2.06525 2.81501 2.15265 2.7975C2.24006 2.77998 2.33021 2.77989 2.41766 2.79723C2.5051 2.81457 2.58802 2.84898 2.66139 2.89838L7.86121 6.05988L13.061 2.89838C13.1344 2.84898 13.2173 2.81457 13.3048 2.79723C13.3922 2.77989 13.4824 2.77998 13.5698 2.7975C13.6572 2.81501 13.74 2.84959 13.8133 2.89913C13.8865 2.94867 13.9487 3.01215 13.996 3.08573C14.0433 3.15931 14.0748 3.24145 14.0885 3.32719C14.1022 3.41292 14.0978 3.50047 14.0757 3.58453C14.0536 3.66859 14.0142 3.74742 13.9598 3.81624C13.9055 3.88505 13.8373 3.94244 13.7595 3.98491Z" fill="#222425"/>
</svg>