<svg xmlns="http://www.w3.org/2000/svg" width="16" height="16" viewBox="0 0 16 16" fill="none">
  <path d="M7.86121 15.976C5.80288 15.976 3.82886 15.1583 2.3734 13.7028C0.917948 12.2474 0.100281 10.2734 0.100281 8.21503C0.100281 6.1567 0.917948 4.18268 2.3734 2.72722C3.82886 1.27177 5.80288 0.454102 7.86121 0.454102C9.91953 0.454102 11.8936 1.27177 13.349 2.72722C14.8045 4.18268 15.6221 6.1567 15.6221 8.21503C15.6221 10.2734 14.8045 12.2474 13.349 13.7028C11.8936 15.1583 9.91953 15.976 7.86121 15.976ZM8.68289 8.07436C9.22058 7.88092 9.67277 7.50398 9.95986 7.00991C10.247 6.51584 10.3505 5.93632 10.2523 5.3734C10.1542 4.81047 9.86052 4.30024 9.42312 3.93253C8.98573 3.56482 8.43263 3.36322 7.86121 3.36322C7.28978 3.36322 6.73668 3.56482 6.29929 3.93253C5.86189 4.30024 5.56826 4.81047 5.47007 5.3734C5.37189 5.93632 5.47546 6.51584 5.76255 7.00991C6.04964 7.50398 6.50184 7.88092 7.03952 8.07436C5.40778 8.46823 3.98074 9.93698 3.98074 11.1254C3.98074 11.5086 4.12141 12.0906 4.95086 12.0906H10.7716C11.601 12.0906 11.7417 11.5086 11.7417 11.1254C11.7417 9.93795 10.3156 8.46726 8.68289 8.07436Z" fill="#222425"/>
</svg>