<svg xmlns="http://www.w3.org/2000/svg" width="16" height="13" viewBox="0 0 16 13" fill="none">
  <path d="M13.4925 8.3634C13.418 7.84575 13.0183 7.44218 12.5037 7.32189C10.5037 6.85313 10.0024 5.70141 9.91777 4.42396C9.5631 4.35799 8.93214 4.28659 7.86113 4.28659C6.79012 4.28659 6.15916 4.35799 5.80448 4.42396C5.71989 5.70141 5.21854 6.85313 3.21855 7.32189C2.704 7.44296 2.30431 7.84575 2.2298 8.3634L1.84409 11.0347C1.70827 11.9753 2.39899 12.8236 3.35979 12.8236H12.3625C13.3225 12.8236 14.014 11.9753 13.8782 11.0347L13.4925 8.3634ZM7.86113 10.8772C6.77848 10.8772 5.90072 10.0079 5.90072 8.93694C5.90072 7.86593 6.77848 6.99671 7.86113 6.99671C8.94378 6.99671 9.82154 7.86593 9.82154 8.93694C9.82154 10.0079 8.943 10.8772 7.86113 10.8772ZM15.5833 3.5105C15.5646 2.34636 12.6015 0.406904 7.86113 0.406128C3.11998 0.406904 0.156861 2.34636 0.139011 3.5105C0.12116 4.67464 0.155308 6.18957 2.1064 5.93734C4.38889 5.64165 4.24842 4.8446 4.24842 3.7053C4.24842 2.91058 6.10483 2.71888 7.86113 2.71888C9.61743 2.71888 11.4731 2.91058 11.4738 3.7053C11.4738 4.8446 11.3334 5.64165 13.6159 5.93734C15.5662 6.18957 15.6011 4.67464 15.5833 3.5105Z" fill="#222425"/>
</svg>