<svg xmlns="http://www.w3.org/2000/svg" width="16" height="12" viewBox="0 0 16 12" fill="none">
  <path d="M6.57122 1.17085C6.9004 1.01817 7.26017 0.938965 7.6245 0.938965C7.98883 0.938965 8.34861 1.01817 8.67778 1.17085L14.7893 4.00191C14.8958 4.05119 14.9859 4.12879 15.0494 4.22583C15.1128 4.32286 15.147 4.43542 15.1481 4.55059C15.1491 4.66575 15.1169 4.77888 15.0553 4.87701C14.9936 4.97514 14.9049 5.05429 14.7994 5.1054L8.71791 8.0554C8.37813 8.22045 8.00389 8.30633 7.6245 8.30633C7.24511 8.30633 6.87087 8.22045 6.53109 8.0554L1.35496 5.54435V8.29572C1.35496 8.45831 1.28891 8.61424 1.17133 8.72921C1.05375 8.84418 0.894286 8.90877 0.728008 8.90877C0.561729 8.90877 0.402261 8.84418 0.284684 8.72921C0.167108 8.61424 0.101054 8.45831 0.101054 8.29572V4.58676C0.094891 4.46551 0.125683 4.3452 0.189527 4.24108C0.253371 4.13696 0.347392 4.05372 0.459672 4.00191L6.57122 1.17085ZM2.60887 7.52205V9.52182C2.60889 9.60246 2.62518 9.68231 2.65681 9.75679C2.68844 9.83127 2.73478 9.89892 2.79319 9.95586L2.7957 9.95953L2.82454 9.98528L2.89978 10.0539C2.96247 10.1112 3.05317 10.1876 3.17187 10.2832C3.40636 10.4708 3.74491 10.7185 4.16748 10.9674C5.0076 11.4591 6.21636 11.974 7.6245 11.974C9.03264 11.974 10.2427 11.4591 11.0815 10.9674C11.5328 10.7025 11.9577 10.3966 12.3505 10.0539L12.4257 9.98528L12.4458 9.96566L12.4533 9.95831L12.4546 9.95708L12.4571 9.95586C12.5152 9.89882 12.5614 9.83113 12.5928 9.75665C12.6242 9.68218 12.6403 9.60238 12.6401 9.52182V7.52082L9.27464 9.15399C8.76181 9.40289 8.19704 9.5324 7.6245 9.5324C7.05197 9.5324 6.4872 9.40289 5.97436 9.15399L2.60887 7.52205Z" fill="#222425"/>
</svg>