<svg width="16" height="12" viewBox="0 0 16 12" fill="none" xmlns="http://www.w3.org/2000/svg">
<path d="M1.39387 0.181519H14.3298C15.0089 0.181519 15.6234 0.763691 15.6234 1.40715V9.98653C15.6234 10.63 15.0089 11.2122 14.3298 11.2122H1.39387C0.714738 11.2122 0.100281 10.63 0.100281 9.98653V1.40715C0.100281 0.763691 0.714738 0.181519 1.39387 0.181519ZM9.15543 2.01996V2.63277H14.3298V2.01996H9.15543ZM9.15543 3.24559V3.8584H14.3298V3.24559H9.15543ZM9.15543 4.47121V5.08403H13.683V4.47121H9.15543ZM5.27465 6.86731C3.98106 6.86731 1.39387 7.53528 1.39387 8.76091V9.37372H9.15543V8.76091C9.15543 7.53528 6.56825 6.86731 5.27465 6.86731ZM5.27465 2.01996C4.76003 2.01996 4.26648 2.21365 3.90259 2.55843C3.5387 2.9032 3.33426 3.37081 3.33426 3.8584C3.33426 4.34598 3.5387 4.8136 3.90259 5.15837C4.26648 5.50315 4.76003 5.69684 5.27465 5.69684C5.78928 5.69684 6.28282 5.50315 6.64672 5.15837C7.01061 4.8136 7.21504 4.34598 7.21504 3.8584C7.21504 3.37081 7.01061 2.9032 6.64672 2.55843C6.28282 2.21365 5.78928 2.01996 5.27465 2.01996Z" fill="#222425"/>
</svg>
