<svg xmlns="http://www.w3.org/2000/svg" width="19" height="22" viewBox="0 0 19 22" fill="none">
  <path fill-rule="evenodd" clip-rule="evenodd" d="M13.3868 0C13.6599 0 13.9218 0.108492 14.115 0.301608C14.3081 0.494724 14.4166 0.756646 14.4166 1.02975V2.05951H16.4761C17.0223 2.05951 17.5461 2.27649 17.9324 2.66272C18.3186 3.04896 18.5356 3.5728 18.5356 4.11902V16.4761C18.5356 17.0223 18.3186 17.5461 17.9324 17.9324C17.5461 18.3186 17.0223 18.5356 16.4761 18.5356H2.05951C1.51329 18.5356 0.989449 18.3186 0.603216 17.9324C0.216983 17.5461 0 17.0223 0 16.4761V4.11902C0 3.5728 0.216983 3.04896 0.603216 2.66272C0.989449 2.27649 1.51329 2.05951 2.05951 2.05951H4.11902V1.02975C4.11902 0.756646 4.22751 0.494724 4.42062 0.301608C4.61374 0.108492 4.87566 0 5.14877 0C5.42188 0 5.6838 0.108492 5.87692 0.301608C6.07003 0.494724 6.17852 0.756646 6.17852 1.02975V2.05951H12.357V1.02975C12.357 0.756646 12.4655 0.494724 12.6587 0.301608C12.8518 0.108492 13.1137 0 13.3868 0ZM5.15907 13.3868H5.14877C4.88631 13.3871 4.63386 13.4876 4.44301 13.6678C4.25216 13.8479 4.13731 14.0942 4.12193 14.3562C4.10655 14.6182 4.19179 14.8762 4.36025 15.0775C4.52871 15.2788 4.76766 15.4081 5.02829 15.4391L5.15907 15.4463C5.43218 15.4463 5.6941 15.3378 5.88721 15.1447C6.08033 14.9516 6.18882 14.6897 6.18882 14.4166C6.18882 14.1435 6.08033 13.8815 5.88721 13.6884C5.6941 13.4953 5.43218 13.3868 5.15907 13.3868ZM9.27809 13.3868H9.26779C9.00532 13.3871 8.75288 13.4876 8.56203 13.6678C8.37118 13.8479 8.25633 14.0942 8.24094 14.3562C8.22556 14.6182 8.31081 14.8762 8.47927 15.0775C8.64773 15.2788 8.88668 15.4081 9.14731 15.4391L9.27809 15.4463C9.55119 15.4463 9.81312 15.3378 10.0062 15.1447C10.1993 14.9516 10.3078 14.6897 10.3078 14.4166C10.3078 14.1435 10.1993 13.8815 10.0062 13.6884C9.81312 13.4953 9.55119 13.3868 9.27809 13.3868ZM13.3971 13.3868H13.3868C13.1243 13.3871 12.8719 13.4876 12.681 13.6678C12.4902 13.8479 12.3753 14.0942 12.36 14.3562C12.3446 14.6182 12.4298 14.8762 12.5983 15.0775C12.7667 15.2788 13.0057 15.4081 13.2663 15.4391L13.3971 15.4463C13.6702 15.4463 13.9321 15.3378 14.1252 15.1447C14.3184 14.9516 14.4269 14.6897 14.4269 14.4166C14.4269 14.1435 14.3184 13.8815 14.1252 13.6884C13.9321 13.4953 13.6702 13.3868 13.3971 13.3868ZM5.15907 9.26779H5.14877C4.88631 9.26808 4.63386 9.36858 4.44301 9.54875C4.25216 9.72893 4.13731 9.97518 4.12193 10.2372C4.10655 10.4992 4.19179 10.7572 4.36025 10.9585C4.52871 11.1597 4.76766 11.2891 5.02829 11.3201L5.15907 11.3273C5.43218 11.3273 5.6941 11.2188 5.88721 11.0257C6.08033 10.8326 6.18882 10.5706 6.18882 10.2975C6.18882 10.0244 6.08033 9.76251 5.88721 9.5694C5.6941 9.37628 5.43218 9.26779 5.15907 9.26779ZM9.27809 9.26779H9.26779C9.00532 9.26808 8.75288 9.36858 8.56203 9.54875C8.37118 9.72893 8.25633 9.97518 8.24094 10.2372C8.22556 10.4992 8.31081 10.7572 8.47927 10.9585C8.64773 11.1597 8.88668 11.2891 9.14731 11.3201L9.27809 11.3273C9.55119 11.3273 9.81312 11.2188 10.0062 11.0257C10.1993 10.8326 10.3078 10.5706 10.3078 10.2975C10.3078 10.0244 10.1993 9.76251 10.0062 9.5694C9.81312 9.37628 9.55119 9.26779 9.27809 9.26779ZM13.3971 9.26779H13.3868C13.1243 9.26808 12.8719 9.36858 12.681 9.54875C12.4902 9.72893 12.3753 9.97518 12.36 10.2372C12.3446 10.4992 12.4298 10.7572 12.5983 10.9585C12.7667 11.1597 13.0057 11.2891 13.2663 11.3201L13.3971 11.3273C13.6702 11.3273 13.9321 11.2188 14.1252 11.0257C14.3184 10.8326 14.4269 10.5706 14.4269 10.2975C14.4269 10.0244 14.3184 9.76251 14.1252 9.5694C13.9321 9.37628 13.6702 9.26779 13.3971 9.26779ZM16.4761 4.11902H2.05951V6.17852H16.4761V4.11902Z" fill="#222425"/>
</svg>