<svg xmlns="http://www.w3.org/2000/svg" width="19" height="20" viewBox="0 0 19 20" fill="none">
  <path fill-rule="evenodd" clip-rule="evenodd" d="M9.26779 19.5044C11.7258 19.5044 14.0831 18.528 15.8211 16.79C17.5592 15.0519 18.5356 12.6946 18.5356 10.2367C18.5356 7.77869 17.5592 5.42139 15.8211 3.68334C14.0831 1.9453 11.7258 0.968872 9.26779 0.968872C6.80982 0.968872 4.45252 1.9453 2.71447 3.68334C0.976425 5.42139 0 7.77869 0 10.2367C0 12.6946 0.976425 15.0519 2.71447 16.79C4.45252 18.528 6.80982 19.5044 9.26779 19.5044ZM9.26779 6.26475C8.89178 6.26475 8.64023 6.7149 8.13712 7.61917L8.00737 7.85219C7.86438 8.10904 7.79289 8.23614 7.68167 8.32088C7.56914 8.40561 7.43012 8.43739 7.15208 8.49961L6.90053 8.55787C5.92344 8.77897 5.4349 8.88886 5.31839 9.26222C5.20188 9.6369 5.53552 10.0261 6.20147 10.8046L6.37359 11.0059C6.56292 11.227 6.65824 11.3369 6.70061 11.4746C6.74298 11.6123 6.72841 11.7592 6.70061 12.0545L6.67413 12.3232C6.57351 13.3626 6.5232 13.8829 6.82639 14.1132C7.1309 14.3436 7.58899 14.1331 8.50386 13.7121L8.73952 13.6035C9.00035 13.4844 9.1301 13.4248 9.26779 13.4248C9.40548 13.4248 9.53523 13.4844 9.79605 13.6035L10.0317 13.7121C10.9466 14.1344 11.4047 14.3436 11.7092 14.1132C12.0137 13.8829 11.9621 13.3626 11.8614 12.3232L11.835 12.0545C11.8072 11.7592 11.7926 11.6123 11.835 11.4746C11.8773 11.3382 11.9727 11.227 12.162 11.0059L12.3341 10.8046C13.0001 10.0261 13.3337 9.6369 13.2172 9.26222C13.1007 8.88886 12.6121 8.77897 11.635 8.55787L11.3835 8.49961C11.1055 8.43739 10.9664 8.40693 10.8539 8.32088C10.7427 8.23614 10.6712 8.10904 10.5282 7.85219L10.3985 7.61917C9.89535 6.7149 9.6438 6.26475 9.26779 6.26475Z" fill="#222425"/>
</svg>